<svg width="456" height="447" viewBox="0 0 456 447" fill="none" xmlns="http://www.w3.org/2000/svg">
<path d="M16.2663 125.254C140.693 125.254 314.946 125.254 439.359 125.254V138.16H425.786H29.8396H16.2663V125.254ZM314.706 278.84C314.706 326.747 275.733 365.72 227.813 365.72C112.546 360.947 112.573 196.707 227.813 191.947C275.733 191.947 314.706 230.934 314.706 278.84ZM439.359 431.08H16.2663V418.174H25.7197C31.5597 422.2 419.88 418.08 425.8 419.507C427.333 419.507 428.693 418.947 429.906 418.174H439.359V431.08ZM447.2 153.827C451.533 153.827 455.04 150.32 455.04 146V117.414C455.04 113.08 451.533 109.574 447.2 109.574H375.359V76.3601C375.359 72.0401 371.853 68.5336 367.52 68.5336H326.48C322.146 68.5336 318.64 72.0401 318.64 76.3601V109.574H137V76.3601C137 72.0401 133.493 68.5336 129.159 68.5336H88.1064C83.773 68.5336 80.2796 72.0401 80.2796 76.3601V109.574H8.43958C4.10625 109.574 0.599609 113.08 0.599609 117.414V146C0.599609 150.32 4.10625 153.827 8.43958 153.827H22.0129V402.507H8.43958C4.10625 402.507 0.599609 406.014 0.599609 410.334V438.92C0.599609 443.254 4.10625 446.76 8.43958 446.76H447.2C451.533 446.76 455.04 443.254 455.04 438.92V410.334C455.04 406.014 451.533 402.507 447.2 402.507H433.626V153.827H447.2Z" fill="black"/>
<path d="M88.7738 35.7466H100.8V47.7867C100.8 52.1067 104.307 55.6133 108.64 55.6133C112.974 55.6133 116.467 52.1067 116.467 47.7867V35.7466H128.507C132.827 35.7466 136.334 32.2401 136.334 27.9201C136.334 23.5867 132.827 20.08 128.507 20.08H116.467V8.05339C116.467 3.73339 112.974 0.213285 108.64 0.213285C104.307 0.213285 100.8 3.73339 100.8 8.05339V20.08H88.7738C78.5337 20.12 78.5337 35.7066 88.7738 35.7466Z" fill="black"/>
<path d="M327.133 35.7466H366.853C377.093 35.7066 377.12 20.1199 366.853 20.0799H327.133C316.893 20.1199 316.88 35.7066 327.133 35.7466Z" fill="black"/>
<path d="M254.24 235.533C257.16 238.72 256.96 243.667 253.774 246.6L227.253 271H248.467C255.347 270.773 259.013 280 253.827 284.547L213.4 322.547C211.893 323.96 209.96 324.667 208.04 324.667C201.227 324.907 197.44 315.693 202.68 311.12L228.693 286.667H207.16C200.24 286.893 196.6 277.587 201.867 273.067L243.16 235.067C246.333 232.147 251.307 232.347 254.24 235.533ZM156.6 278.84C156.6 318.107 188.547 350.053 227.813 350.053C322.267 346.213 322.24 211.453 227.813 207.627C188.547 207.627 156.6 239.574 156.6 278.84Z" fill="black"/>
</svg>
