<svg width="454" height="455" viewBox="0 0 454 455" fill="none" xmlns="http://www.w3.org/2000/svg">
<path d="M411.312 231.187C398.496 230.96 398.499 211.907 411.312 211.68C424.128 211.907 424.125 230.96 411.312 231.187ZM388.331 352.04C379.303 361.014 365.555 347.32 374.543 338.24C383.604 329.28 397.3 342.974 388.331 352.04ZM367.94 299.947C377.044 290.96 390.703 304.667 381.747 313.72C372.688 322.694 359.015 309 367.94 299.947ZM355.28 271.814C346.324 262.72 360.009 249.094 369.056 258C378.049 267.08 364.349 280.787 355.28 271.814ZM344.963 122.587C326.589 120.747 337.536 94.2402 351.864 105.947C358.072 111.747 353.315 122.894 344.963 122.587ZM340.968 188.08C328.152 187.854 328.153 168.8 340.968 168.574C353.784 168.8 353.781 187.854 340.968 188.08ZM331.2 247.293C332.976 291.347 291.009 333.227 246.98 331.374C173.325 332.16 134.489 239.987 187.519 187.693C239.873 134.613 332.133 173.587 331.2 247.293ZM315.947 350.893C303.132 350.667 303.133 331.614 315.948 331.387C328.763 331.614 328.761 350.667 315.947 350.893ZM295.273 389.493C282.457 389.267 282.459 370.214 295.273 369.987C308.089 370.214 308.087 389.267 295.273 389.493ZM272.839 421.24C260.024 421.014 260.025 401.96 272.839 401.734C285.655 401.96 285.653 421.014 272.839 421.24ZM236.273 369.227C227.209 378.227 213.491 364.52 222.467 355.454C231.548 346.494 245.187 360.187 236.273 369.227ZM194.359 381.907C185.295 390.894 171.576 377.2 180.552 368.12C189.633 359.174 203.272 372.854 194.359 381.907ZM153.136 325.867C140.32 325.64 140.321 306.587 153.136 306.374C165.951 306.587 165.949 325.64 153.136 325.867ZM156.031 388.507C146.953 397.494 133.248 383.72 142.255 374.693C151.293 365.747 165.004 379.454 156.031 388.507ZM131.917 239.267C113.552 237.44 124.477 210.947 138.824 222.64C145.024 228.454 140.263 239.587 131.917 239.267ZM114.537 305.2C101.723 304.974 101.723 285.92 114.537 285.693C127.353 285.92 127.352 304.974 114.537 305.2ZM82.7921 282.76C69.9761 282.533 69.9774 263.48 82.7921 263.254C95.6081 263.48 95.6054 282.533 82.7921 282.76ZM135.74 44.6135C167.424 27.1735 202.973 17.4804 239.219 16.2404V94.2135C160.893 98.2002 98.0307 161.067 94.0454 239.387H16.0721C17.3041 203.147 27.0054 167.6 44.4361 135.907C86.6041 120.547 120.379 86.7735 135.74 44.6135ZM187.908 153.307C187.681 166.12 168.628 166.12 168.404 153.307C168.631 140.494 187.683 140.494 187.908 153.307ZM257.831 125.214C266.901 116.214 280.609 129.934 271.637 139C262.561 147.947 248.915 134.267 257.831 125.214ZM299.745 112.547C308.821 103.547 322.523 117.254 313.552 126.32C304.476 135.28 290.831 121.587 299.745 112.547ZM379.565 189.254C392.383 189.48 392.379 208.533 379.565 208.76C366.752 208.533 366.751 189.48 379.565 189.254ZM254.889 39.8935C254.892 39.8801 254.887 8.16015 254.889 8.16015C254.889 3.82682 251.38 0.320307 247.053 0.320307C204.656 0.320307 162.816 11.2935 126.013 32.0268C125.993 32.0268 125.975 32.0403 125.955 32.0536C124.156 33.0803 122.887 34.6802 122.032 36.5469C108.42 76.5735 76.3988 108.587 36.3694 122.2C34.5148 123.054 32.8814 124.347 31.8721 126.147C31.8681 126.16 31.8641 126.16 31.8601 126.174C11.1214 162.974 0.147949 204.827 0.147949 247.227C0.147949 251.547 3.65634 255.054 7.98288 255.054C7.99128 255.08 39.7081 255.054 39.7174 255.054C43.8588 365.867 135.245 454.76 247.053 454.76C517.668 444.227 524.289 60.2668 254.889 39.8935Z" fill="black"/>
<path d="M254.889 179.227V190.64C254.889 217.52 276.756 239.387 303.64 239.387H315.048C312.677 209.293 284.987 181.6 254.889 179.227Z" fill="black"/>
<path d="M179.056 239.387H190.463C217.347 239.387 239.219 217.52 239.219 190.64V179.227C209.12 181.6 181.425 209.293 179.056 239.387Z" fill="black"/>
<path d="M254.889 303.813V315.213C284.987 312.84 312.675 285.16 315.048 255.053H303.64C276.756 255.053 254.889 276.933 254.889 303.813Z" fill="black"/>
<path d="M190.463 255.053H179.056C181.428 285.16 209.121 312.853 239.219 315.213V303.813C239.219 276.933 217.347 255.053 190.463 255.053Z" fill="black"/>
<path d="M52.9094 195.627C75.3774 216.96 107.429 184.88 86.1201 162.427C86.1161 162.427 86.1161 162.427 86.1161 162.413C63.6334 141.107 31.5934 173.173 52.9094 195.627Z" fill="black"/>
<path d="M178.856 93.1599C198.956 93.8799 210.405 67.0266 195.459 53.0799C186.305 43.9199 171.407 43.9333 162.252 53.0799C147.313 67.0266 158.751 93.8799 178.856 93.1599Z" fill="black"/>
<path d="M17.2495 309.88C25.9775 307.68 22.6375 298.293 21.2468 292.013C20.4135 287.773 16.3081 284.974 12.0428 285.84C7.79959 286.68 5.03706 290.8 5.87519 295.054C7.00279 301.494 8.33346 311.853 17.2495 309.88Z" fill="black"/>
<path d="M30.1921 324.52C26.7427 314.92 12.0174 320.093 15.4321 329.787C28.6227 366.787 50.8894 400.547 79.8227 427.413C87.3307 434.333 97.9774 422.96 90.4814 415.933C63.3881 390.773 42.5414 359.16 30.1921 324.52Z" fill="black"/>
<path d="M317.588 28.0668C363.241 42.7468 402.628 70.9069 431.493 109.507C437.652 117.68 450.157 108.36 444.041 100.133C413.217 58.9068 371.149 28.8267 322.387 13.1467C312.647 10.0667 307.821 24.8801 317.588 28.0668Z" fill="black"/>
<path d="M283.505 19.9333C287.583 20.4666 291.564 21.5865 295.613 22.0265C304.799 22.1065 306.319 8.34666 297.197 6.52C290.352 5.32 278.953 0.973175 276.997 10.9598C276.32 15.2398 279.232 19.2533 283.505 19.9333Z" fill="black"/>
</svg>
