<svg width="458" height="392" viewBox="0 0 458 392" fill="none" xmlns="http://www.w3.org/2000/svg">
<path d="M229.841 183.333C241.507 183.64 251.04 171.8 248.227 160.453C248.24 160.453 237.494 111.56 237.494 111.56C235.987 103.547 223.694 103.52 222.187 111.56L211.441 160.453C208.641 171.8 218.161 183.64 229.841 183.333Z" fill="black"/>
<path d="M204.12 233.707C204.12 238.04 207.627 241.547 211.96 241.547H247.707C252.04 241.547 255.547 238.04 255.547 233.707C255.547 229.387 252.04 225.88 247.707 225.88H211.96C207.627 225.88 204.12 229.387 204.12 233.707Z" fill="black"/>
<path d="M155.974 99.5868L166.32 109.933C169.374 112.987 174.333 112.987 177.4 109.933C180.453 106.867 180.453 101.907 177.4 98.8534L167.054 88.5067C181.92 75.8534 200.6 67.6 221.133 65.7734V80.3734C221.133 84.6934 224.64 88.2001 228.974 88.2001C233.294 88.2001 236.8 84.6934 236.8 80.3734V65.68C258.013 67.2 277.347 75.4934 292.613 88.5067L282.28 98.8534C279.213 101.907 279.213 106.867 282.28 109.933C285.333 112.987 290.293 112.987 293.36 109.933L303.693 99.5868C316.52 114.653 324.8 133.653 326.48 154.533H311.827C307.493 154.533 303.987 158.04 303.987 162.36C303.987 166.693 307.493 170.2 311.827 170.2H326.48C324.907 189.747 317.533 207.64 306.067 222.213C264.933 182.773 194.733 182.773 153.613 222.227C142.147 207.64 134.76 189.747 133.187 170.2H147.84C152.174 170.2 155.68 166.693 155.68 162.36C155.68 158.04 152.174 154.533 147.84 154.533H133.187C134.867 133.653 143.147 114.653 155.974 99.5868ZM229.84 259.4C204.547 259.4 181.56 249.6 164.267 233.693C199.653 199.787 260.013 199.8 295.413 233.693C278.12 249.6 255.134 259.4 229.84 259.4ZM145.267 314.84H153.72C152.227 327.987 147.013 340.013 139.16 349.88L133.213 343.933C130.16 340.867 125.2 340.867 122.133 343.933C119.08 347 119.08 351.947 122.133 355.013L128.08 360.96C118.227 368.8 106.2 374.013 93.0402 375.52V367.067C93.0402 362.747 89.5335 359.227 85.2001 359.227C80.8668 359.227 77.3736 362.747 77.3736 367.067V375.52C64.2136 374.013 52.1869 368.8 42.3202 360.96L48.2668 355.013C51.3335 351.96 51.3335 347 48.2668 343.933C45.2135 340.867 40.2535 340.88 37.1869 343.933L31.2402 349.88C23.3869 340.013 18.1734 327.987 16.6801 314.84H25.1335C29.4668 314.84 32.9736 311.32 32.9736 307C32.9736 302.667 29.4668 299.16 25.1335 299.16H16.6801C18.1734 286 23.3869 273.973 31.2402 264.12L37.1869 270.067C40.2535 273.12 45.2135 273.12 48.2668 270.067C51.3335 267 51.3335 262.04 48.2668 258.973L42.3202 253.04C52.1869 245.187 64.2136 239.973 77.3736 238.48V246.933C77.3736 251.253 80.8668 254.76 85.2001 254.76C89.5335 254.76 93.0402 251.253 93.0402 246.933V238.48C106.2 239.973 118.227 245.187 128.08 253.04L122.133 258.987C119.08 262.04 119.08 267 122.133 270.067C125.2 273.12 130.16 273.12 133.213 270.067L139.16 264.12C147.013 273.973 152.227 286 153.72 299.16H145.267C135.013 299.213 135.027 314.787 145.267 314.84ZM420.747 343.933C413.467 336.72 402.453 347.733 409.667 355.013L415.613 360.96C405.747 368.8 393.72 374.013 380.56 375.52V367.067C380.56 362.747 377.067 359.227 372.733 359.227C368.4 359.227 364.893 362.747 364.893 367.067V375.52C351.733 374.013 339.707 368.8 329.854 360.96L335.8 355.013C338.853 351.947 338.853 347 335.8 343.933C332.733 340.867 327.774 340.867 324.72 343.933L318.774 349.88C310.92 340.013 305.707 327.987 304.213 314.84H312.667C317 314.84 320.507 311.32 320.507 307C320.507 302.667 317 299.16 312.667 299.16H304.213C305.707 286 310.92 273.973 318.774 264.12L324.72 270.067C327.774 273.12 332.733 273.12 335.8 270.067C338.853 267 338.853 262.04 335.8 258.987L329.854 253.04C339.707 245.187 351.733 239.973 364.893 238.48V246.933C364.893 251.253 368.4 254.76 372.733 254.76C377.067 254.76 380.56 251.253 380.56 246.933V238.48C393.72 239.973 405.747 245.187 415.613 253.04L409.667 258.973C406.6 262.04 406.6 267 409.667 270.067C412.72 273.12 417.68 273.12 420.747 270.067L426.693 264.12C434.547 273.973 439.76 286 441.254 299.16H432.8C428.467 299.16 424.974 302.667 424.974 307C424.974 311.32 428.467 314.84 432.8 314.84H441.254C439.76 327.987 434.547 340.013 426.693 349.88L420.747 343.933ZM432.747 366.653C465.133 336.653 465.12 277.347 432.747 247.347C432.667 247.187 432.547 247.067 432.387 246.987C411.56 225.36 375.667 216.253 346.307 226.613C395.747 140.44 329.707 27.8933 229.84 29.28C129.587 27.88 63.5068 141.32 113.867 227.427C84.1468 215.88 46.8934 224.747 25.5468 246.987C25.3868 247.067 25.2669 247.187 25.1869 247.347C-7.19981 277.347 -7.18648 336.653 25.1869 366.653C25.2669 366.813 25.3868 366.92 25.5468 367C55.5468 399.387 114.867 399.387 144.854 367C145.014 366.92 145.12 366.813 145.213 366.653C167.44 345.32 176.32 308.053 164.76 278.333C201.96 300.427 255.013 300.987 292.693 279.613C281.813 309.133 290.84 345.613 312.72 366.653C312.814 366.813 312.92 366.92 313.08 367C343.067 399.387 402.4 399.387 432.387 367C432.547 366.92 432.667 366.813 432.747 366.653Z" fill="black"/>
<path d="M382.854 285.027L359.933 303.093C356.773 305.6 354.92 309.347 354.893 313.387C354.707 327.187 374.987 333.947 381.467 320.733L394.693 294.72C398.613 287.56 389.107 279.747 382.854 285.027Z" fill="black"/>
<path d="M101.84 300.293L77.88 283.653C74.88 281.56 70.8 281.827 68.08 284.333C65.3866 286.84 64.7867 290.88 66.6534 294.053L81.4266 319.213C93.1999 337.493 119.187 313.453 101.84 300.293Z" fill="black"/>
<path d="M442.76 238.08C449.973 245.347 461.08 234.44 453.947 227.093C449.16 222.267 441.68 213.6 435.187 220.893C429.347 228.053 438.187 233.467 442.76 238.08Z" fill="black"/>
<path d="M384.747 209.56C396.827 211 408.413 214.64 419.147 220.387C422.88 222.413 427.693 221.027 429.747 217.187C437.227 202.72 396.28 195.453 386.6 193.987C376.387 192.867 374.587 208.293 384.747 209.56Z" fill="black"/>
<path d="M36 220.84C48.1734 216.72 59.9067 210.4 73.2 209.56C77.4934 209.04 80.5601 205.133 80.0401 200.84C78.0268 184.867 41.0666 201.907 32.3599 206.067C25.1199 209.547 28.1334 221.147 36 220.84Z" fill="black"/>
<path d="M9.57375 240.427C15.4938 240.213 18.5735 233.68 23.2935 230.693C26.6402 227.973 27.1469 223.04 24.4269 219.68C17.3469 211.707 9.22703 222.213 3.98703 227.107C-0.946298 231.773 2.90709 240.667 9.57375 240.427Z" fill="black"/>
<path d="M355.734 87.04C361.08 95.8266 374.387 87.7734 369.16 78.9867C365.894 73.28 360.987 64.0133 353.254 69.0667C345.947 74.1867 352.307 81.6666 355.734 87.04Z" fill="black"/>
<path d="M229.84 15.6801C270.48 15.6801 308.28 31.9201 336.254 61.4134C343.307 68.8001 354.653 58.1068 347.613 50.6268C316.653 17.9868 274.827 0.0134244 229.84 0.0134244C219.627 0.0667577 219.56 15.6268 229.84 15.6801Z" fill="black"/>
</svg>
