<svg width="457" height="450" viewBox="0 0 457 450" fill="none" xmlns="http://www.w3.org/2000/svg">
<path d="M270.76 52.7867H77.4187V126.107H270.76V52.7867Z" fill="black"/>
<path d="M331.544 240.52H320.855V179.907H331.544V240.52ZM16.636 240.52V179.907H27.324V240.52H16.636ZM232.331 179.907H115.852C105.643 179.867 105.579 164.28 115.853 164.24C115.852 164.24 232.331 164.24 232.331 164.24C242.54 164.28 242.605 179.867 232.331 179.907ZM115.852 210.84C105.643 210.8 105.579 195.213 115.853 195.16C115.852 195.16 232.331 195.16 232.331 195.16C242.54 195.2 242.605 210.787 232.331 210.84H115.852ZM200.757 297.44C207.633 297.227 211.305 306.427 206.124 310.987L153.921 360.053C152.407 361.48 150.479 362.173 148.555 362.173C141.752 362.413 137.955 353.213 143.188 348.64C143.187 348.64 180.981 313.12 180.981 313.12H147.423C140.507 313.333 136.856 304.04 142.116 299.52L195.451 250.453C203.012 243.56 213.581 255 206.063 261.987L167.511 297.44H200.757ZM61.7493 44.9469C61.7493 40.6135 65.2559 37.1068 69.5839 37.1068H278.596C282.923 37.1068 286.431 40.6135 286.431 44.9469V133.933C286.431 138.267 282.923 141.774 278.596 141.774H69.5839C65.2559 141.774 61.7493 138.267 61.7493 133.933V44.9469ZM328.889 433.733H19.2907V425.24C35.4747 425.24 312.691 425.24 328.889 425.24V433.733ZM448.232 103.414H441.997V85.4269C441.997 81.1069 438.488 77.6002 434.161 77.6002C429.835 77.6002 426.327 81.1069 426.327 85.4269V103.414H421.801V85.4269C421.801 81.1069 418.292 77.6002 413.965 77.6002C409.639 77.6002 406.131 81.1069 406.131 85.4269V103.414H399.895C395.568 103.414 392.059 106.92 392.059 111.253V135.427C392.059 150.347 402.379 162.813 416.227 166.333V408.947C416.227 413.84 412.251 417.813 407.365 417.813C402.476 417.813 398.501 413.84 398.501 408.947V261.507C398.501 231.56 376.113 206.813 347.215 202.96V172.08C347.215 167.747 343.705 164.24 339.379 164.24H320.855V39.9202C320.855 18.2268 303.207 0.573481 281.511 0.573481H66.6679C44.9719 0.573481 27.324 18.2268 27.324 39.9202V164.24H8.79997C4.4733 164.24 0.965332 167.747 0.965332 172.08V248.347C0.965332 252.68 4.4733 256.187 8.79997 256.187H27.324V409.56H11.4547C7.12799 409.56 3.61995 413.08 3.61995 417.4V441.573C3.61995 445.893 7.12799 449.4 11.4547 449.4H336.724C341.051 449.4 344.559 445.893 344.559 441.573V417.4C344.559 413.08 341.051 409.56 336.724 409.56H320.855V256.187H339.379C343.705 256.187 347.215 252.68 347.215 248.347V218.787C367.443 222.493 382.832 240.213 382.832 261.507V408.947C383.661 441.253 431.049 441.32 431.896 408.947V166.333C445.748 162.813 456.068 150.347 456.068 135.427V111.253C456.068 106.92 452.56 103.414 448.232 103.414Z" fill="black"/>
</svg>
