<svg width="385" height="455" viewBox="0 0 385 455" fill="none" xmlns="http://www.w3.org/2000/svg">
<path d="M368.281 360.347C368.275 380.013 350.883 398.227 322.656 412.12V248.52C322.615 238.307 307.031 238.253 306.985 248.52V418.947C293.407 424.2 278.081 428.573 261.489 431.827V265.507C261.489 261.187 257.981 257.68 253.655 257.68C249.328 257.68 245.82 261.187 245.82 265.507V434.493C231.277 436.627 215.975 437.933 200.201 438.253V270.493C200.201 266.16 196.693 262.653 192.367 262.653C188.039 262.653 184.531 266.16 184.531 270.493V438.253C168.757 437.933 153.455 436.627 138.913 434.493V265.507C138.913 261.187 135.405 257.68 131.079 257.68C126.751 257.68 123.243 261.187 123.243 265.507V431.827C106.651 428.573 91.3267 424.2 77.7467 418.947V248.52C77.7467 244.2 74.2387 240.693 69.912 240.693C65.5854 240.693 62.0774 244.2 62.0774 248.52V412.12C33.8507 398.227 16.4587 380.013 16.4507 360.347V188.24C78.0547 262.2 306.752 262.147 368.281 188.24V360.347ZM192.367 15.2935C287.723 15.2935 368.281 51.0401 368.281 93.3467C368.281 135.653 287.723 171.413 192.367 171.413C97.0094 171.413 16.4507 135.653 16.4507 93.3467C16.4507 51.0401 97.0094 15.2935 192.367 15.2935ZM383.952 93.3467C378.68 -30.6933 5.99203 -30.6533 0.780029 93.3467V360.373C0.833363 412.88 84.8307 453.96 192.165 454.013C192.304 454.053 192.429 454.053 192.568 454.013C296.541 453.96 378.665 415.387 383.699 365.267C384.297 363.627 383.977 98.1335 383.805 96.2668C383.864 95.2935 383.952 94.3201 383.952 93.3467Z" fill="black"/>
<path d="M192.367 137.453C241.072 137.453 277.803 118.493 277.803 93.3467C276.86 34.9334 107.845 34.9601 106.929 93.3467C106.929 118.493 143.661 137.453 192.367 137.453Z" fill="black"/>
</svg>
