<svg width="455" height="450" viewBox="0 0 455 450" fill="none" xmlns="http://www.w3.org/2000/svg">
<path d="M285.613 52.7867H92.272V126.107H285.613V52.7867Z" fill="black"/>
<path d="M362.063 240.52H335.708V179.907H362.063V240.52ZM15.8174 240.52V179.907H42.1734V240.52H15.8174ZM247.18 179.907H130.701C120.492 179.867 120.427 164.28 130.701 164.24H247.18C257.389 164.28 257.455 179.867 247.18 179.907ZM227.129 327.653C225.527 378.107 152.351 378.107 150.752 327.653C150.752 316.293 162.241 244.72 188.941 244.72C215.64 244.72 227.129 316.293 227.129 327.653ZM130.701 210.84C120.492 210.8 120.427 195.213 130.701 195.16H247.18C257.389 195.2 257.455 210.787 247.179 210.84C247.18 210.84 130.701 210.84 130.701 210.84ZM76.6014 44.9469C76.6014 40.6135 80.1094 37.1068 84.4374 37.1068H293.448C297.776 37.1068 301.283 40.6135 301.283 44.9469V133.933C301.283 138.267 297.776 141.774 293.448 141.774H84.4374C80.1094 141.774 76.6014 138.267 76.6014 133.933V44.9469ZM343.737 433.733H34.1427V425.24C50.3147 425.24 327.553 425.24 343.737 425.24V433.733ZM452.588 94.6935L422.468 61.0269C415.613 53.4135 403.988 63.8135 410.792 71.4668L437.836 101.707C422.911 99.9202 408.861 109.294 408.795 125.107V148.267C408.795 161.173 419.288 171.667 432.189 171.667H438.915V405.027C438.915 412.08 433.18 417.813 426.133 417.813C419.085 417.813 413.355 412.08 413.355 405.027V245.827C413.355 224.547 397.961 206.827 377.733 203.12V172.08C377.733 167.747 374.225 164.24 369.899 164.24H335.708V39.9202C335.708 18.2268 318.059 0.573481 296.363 0.573481H81.5174C59.8214 0.573481 42.1734 18.2268 42.1734 39.9202V164.24H7.98288C3.65634 164.24 0.147949 167.747 0.147949 172.08V248.347C0.147949 252.68 3.65634 256.187 7.98288 256.187H42.1734V409.56H26.3081C21.9814 409.56 18.4734 413.08 18.4734 417.4V441.573C18.4734 445.893 21.9814 449.4 26.3081 449.4H351.573C355.9 449.4 359.408 445.893 359.408 441.573V417.4C359.408 413.08 355.9 409.56 351.573 409.56H335.708V256.187H369.899C374.225 256.187 377.733 252.68 377.733 248.347V219.307C389.224 222.72 397.684 233.253 397.684 245.827V405.027C397.684 420.72 410.447 433.48 426.133 433.48C441.823 433.48 454.584 420.72 454.584 405.027V163.827V109.547C454.305 106.654 455.667 97.0135 452.588 94.6935Z" fill="black"/>
</svg>
