<svg width="456" height="422" viewBox="0 0 456 422" fill="none" xmlns="http://www.w3.org/2000/svg">
<path d="M455.04 210.84C455.04 186.44 437.133 166.213 413.786 162.44V97.8667C472.6 87.1334 466.16 1.80013 405.946 0.386794C345.72 1.80013 339.293 87.1467 398.12 97.8667V162.44C377.32 165.787 360.906 182.213 357.546 203H292.973C289.626 182.213 273.2 165.8 252.413 162.44V97.8667C311.24 87.1334 304.786 1.80013 244.586 0.386794C184.346 1.80013 177.933 87.1467 236.746 97.8667V162.44C215.96 165.787 199.533 182.213 196.173 203H57.5597V97.8667C116.36 87.0801 109.88 1.78679 49.6796 0.386794C-10.5738 1.81346 -16.947 87.2 41.893 97.88V210.84C41.893 215.16 45.3996 218.68 49.733 218.68H196.173C199.533 239.467 215.96 255.88 236.746 259.24V323.8C177.92 334.547 184.36 419.88 244.586 421.293C304.8 419.867 311.226 334.533 252.413 323.8V259.24C273.2 255.88 289.626 239.467 292.973 218.68H357.546C360.906 239.467 377.32 255.88 398.12 259.24V323.8C339.293 334.547 345.733 419.88 405.946 421.293C466.173 419.867 472.6 334.533 413.786 323.8V259.24C437.133 255.467 455.04 235.227 455.04 210.84Z" fill="black"/>
</svg>
