<svg width="453" height="423" viewBox="0 0 453 423" fill="none" xmlns="http://www.w3.org/2000/svg">
<path d="M386.725 123.147L299.899 36.32L315.76 20.4534C341.037 45.7334 377.415 82.1066 402.585 107.28L386.725 123.147ZM325.911 171.04C324.159 169.293 244.403 89.5333 245.543 90.6799L261.359 74.8666L348.18 161.68L332.364 177.507L325.911 171.04ZM319.1 243.053C314.369 238.32 296.417 220.373 292.041 216L320.371 187.667C324.648 191.947 342.807 210.107 347.429 214.72L319.1 243.053ZM189.973 327.493L181.289 336.173C179.697 337.747 176.928 337.76 175.34 336.173L170.333 331.173C170.328 331.16 170.324 331.16 170.317 331.147H170.313L95.1948 256.027L90.1721 251.013C88.5308 249.36 88.5267 246.693 90.1681 245.053L98.8481 236.373C100.485 234.733 103.164 234.733 104.801 236.373L189.981 321.56C191.609 323.2 191.608 325.853 189.973 327.493ZM159.233 348.187L150.553 356.867C148.916 358.493 146.245 358.493 144.6 356.867C144.573 356.787 137.364 349.667 137.347 349.6H137.343C132.803 345.053 72.2961 284.56 69.4814 281.747C67.8414 280.107 67.8441 277.427 69.4814 275.787L78.1668 267.107C79.7321 265.48 82.5334 265.48 84.1054 267.107L159.235 342.227C160.872 343.88 160.872 346.547 159.233 348.187ZM126.264 366.627L117.584 375.307C115.945 376.96 113.268 376.947 111.631 375.32L106.324 370.013L56.3361 320.027C54.0428 317.307 46.8961 312.88 51.0308 308.76C53.0281 307.267 60.1548 298.213 62.6921 298.853C63.8121 298.853 64.8681 299.293 65.6628 300.08L126.267 360.693C127.899 362.333 127.903 365 126.264 366.627ZM95.2454 387.04L86.5641 395.72C84.9228 397.36 82.2494 397.36 80.6148 395.72L30.6281 345.733C28.9921 344.173 28.9921 341.347 30.6281 339.787L39.3081 331.093C40.8788 329.467 43.6895 329.467 45.2575 331.093L95.2454 381.093C96.8868 382.733 96.8828 385.4 95.2454 387.04ZM208.319 75.6133C213.049 80.3466 231 98.2933 235.377 102.667L207.048 131C206.364 130.32 181.645 105.6 179.989 103.947L208.319 75.6133ZM218.128 142.08L246.457 113.747L309.291 176.587L280.961 204.92L218.128 142.08ZM359.26 150.6L272.437 63.7867L288.82 47.4L375.645 134.227L359.26 150.6ZM440.503 35.04L408.107 2.63995C400.841 -4.56005 389.805 6.4267 397.028 13.72C397.027 13.72 429.423 46.12 429.423 46.12C438.884 55.5867 438.884 70.9733 429.423 80.44L413.665 96.2L388.988 71.52L405.447 55.0666C408.508 52 408.508 47.04 405.447 43.9867L386.104 24.64C383.044 21.5866 378.085 21.5866 375.025 24.64L358.563 41.1066L321.3 3.83995C318.361 0.906619 313.159 0.906619 310.221 3.83995C293.489 20.5733 251.655 62.4133 234.464 79.6L213.859 59C210.797 55.9333 205.839 55.9333 202.779 59L163.369 98.4C160.309 101.467 160.309 106.427 163.369 109.48L187.277 133.387L101.117 219.547C92.3214 219.013 84.7655 228.307 79.0881 233.973C74.2815 238.787 72.4695 245.467 73.6268 251.693C68.6961 253.24 62.1375 261.267 58.3988 264.707C52.7975 270.32 51.3094 278.453 53.8094 285.453C49.7348 286.933 43.1148 294.787 39.9508 297.68C35.2228 302.347 33.1615 309.307 34.5548 315.787C29.7628 317.32 23.1961 325.36 19.5481 328.707C11.8321 336.107 11.8308 349.413 19.5495 356.813C19.5481 356.813 25.5814 362.84 25.5814 362.84L5.40545 383.027C-0.71588 389.133 -0.71588 399.107 5.40545 405.227L17.8148 417.64C23.9374 423.76 33.9001 423.76 40.0201 417.64L60.1974 397.467L69.5361 406.8C77.2841 414.547 89.8934 414.547 97.6428 406.8C101.009 403.12 109.008 396.613 110.567 391.773C117.025 393.12 123.757 391.267 128.663 386.387C131.587 383.213 139.384 376.6 140.959 372.56C148.079 375.147 156.077 373.467 161.633 367.947C165.089 364.187 173.084 357.68 174.656 352.72C181.044 353.973 187.792 351.88 192.368 347.253C198.047 341.573 207.331 334.04 206.797 325.227L292.955 239.067L313.56 259.667C316.621 262.733 321.58 262.733 324.64 259.667L364.049 220.267C367.109 217.2 367.109 212.24 364.049 209.187L343.444 188.573L419.204 112.827L440.503 91.52C456.073 75.9467 456.073 50.6133 440.503 35.04Z" fill="black"/>
</svg>
