<svg width="456" height="422" viewBox="0 0 456 422" fill="none" xmlns="http://www.w3.org/2000/svg">
<path d="M89.1338 239.373H80.9205L94.7872 173.48C98.7738 158.467 112.814 148 128.921 148C158.667 148 223.414 147.987 252.587 148H327.014C343.12 148 357.16 158.467 361.054 173.08L375.014 239.373H366.8H89.1338ZM373.694 334.493H325.68C316.24 334.493 307.361 329.467 302.507 321.373C293.934 310.32 299.867 292.08 313.92 289.56L370.534 278.133C370.827 278.067 371.107 278.04 371.4 278.013C408.92 276.027 410.774 333.387 373.694 334.493ZM277.4 373.227H178.534V358.333H277.4V373.227ZM158.574 319.427C153.867 328.467 144.52 334.547 134.227 334.493H86.2137C71.2404 334.493 59.0406 321.8 59.0406 306.2C58.6672 290.187 73.3339 275.72 89.3739 278.133L145.987 289.56C158.974 291.853 165.667 308.413 158.574 319.427ZM211.214 88.7734H244.76V132.32H211.214V88.7734ZM447.347 185.84H399.894C395.56 185.84 392.067 189.36 392.067 193.68V208.813H384.587L376.294 169.453C370.48 147.587 350.214 132.32 327.014 132.32H260.427V88.7734H302.187C321.974 128.307 381.427 131.413 405.307 94.0134C407.294 90.6534 406.867 86.16 403.694 83.6533C402.454 82.3867 400.494 82.1067 398.814 81.8H365.76L353.334 60.3067L365.76 38.8134H398.814C400.494 38.52 402.454 38.2267 403.694 36.9733C406.867 34.4667 407.294 29.96 405.307 26.6134C381.441 -10.7866 321.947 -7.69332 302.187 31.8533H153.787C134.014 -7.69332 74.5472 -10.8 50.6538 26.6134C48.6805 29.96 49.0937 34.4667 52.2804 36.9733C53.5071 38.2267 55.467 38.52 57.1603 38.8134H90.2137L102.627 60.3067L90.2137 81.8H57.1603C55.467 82.1067 53.5071 82.3867 52.2804 83.6533C49.0937 86.16 48.6805 90.6534 50.6538 94.0134C74.5205 131.427 134.027 128.307 153.787 88.7734H195.534V132.32H128.921C105.721 132.32 85.4537 147.587 79.5471 169.853L71.3471 208.813H63.8671V193.68C63.8671 189.36 60.3739 185.84 56.0406 185.84H8.58717C4.25384 185.84 0.74707 189.36 0.74707 193.68V223.693C0.74707 227.533 3.52056 230.8 7.30723 231.427L54.7603 239.267C59.3603 240.133 63.9871 236.227 63.8671 231.533V224.48H68.0406L63.6406 245.373C46.7739 253.853 34.8139 270.6 33.0406 290.747C33.1206 291.24 28.9205 335.827 29.1205 336.24C28.8138 336.44 29.2005 380.787 29.0538 381.067V396.573C29.0538 410.587 40.467 422 54.4937 422H97.9205C111.947 422 123.347 410.587 123.347 396.573V388.893C179.294 388.893 276.64 388.893 332.587 388.893V396.573C332.587 410.587 344 422 358.014 422H401.441C415.467 422 426.88 410.587 426.88 396.573V381.067C426.68 380.613 427.12 336.627 426.814 336.24C427.094 335.813 422.774 291.2 422.894 290.76C421.12 270.6 409.16 253.853 392.294 245.373L387.894 224.48H392.067V231.533C391.947 236.227 396.574 240.147 401.174 239.267L448.627 231.427C452.414 230.8 455.187 227.533 455.187 223.693V193.68C455.187 189.36 451.68 185.84 447.347 185.84Z" fill="black"/>
<path d="M373.147 293.587L317.027 304.92C312.894 306.253 313.894 310.733 315.947 313.307C317.987 316.707 321.707 318.827 325.68 318.827H373.694C388.907 318.573 388.907 293.293 373.147 293.587Z" fill="black"/>
<path d="M142.881 304.92L86.7605 293.587C71.0671 293.28 70.9605 318.547 86.2138 318.827H134.227C139.107 318.92 143.094 315.587 145.134 311.36C146.401 309.053 145.907 305.827 142.881 304.92Z" fill="black"/>
</svg>
