<svg width="422" height="455" viewBox="0 0 422 455" fill="none" xmlns="http://www.w3.org/2000/svg">
<path d="M133.669 357.254C87.1094 355.774 87.1201 288.267 133.669 286.787C180.224 288.28 180.213 355.774 133.669 357.254ZM133.669 269.974C104.969 269.974 81.6201 293.32 81.6201 322.013C84.0628 390.907 183.281 390.893 185.715 322.013C185.715 293.32 162.365 269.974 133.669 269.974Z" fill="black"/>
<path d="M133.669 302.467C107.876 303.134 107.881 340.907 133.669 341.573C159.457 340.907 159.452 303.134 133.669 302.467Z" fill="black"/>
<path d="M133.669 389.733C96.3308 389.733 65.9495 359.36 65.9495 322.013C69.5055 232.253 197.845 232.267 201.385 322.027C201.385 359.36 171.008 389.733 133.669 389.733ZM258.717 294.813H230.793C228.637 287.053 225.555 279.627 221.573 272.587L241.325 252.827C244.387 249.773 244.387 244.813 241.325 241.747L213.937 214.36C211.02 211.32 205.775 211.32 202.859 214.36L183.092 234.12C176.057 230.173 168.627 227.08 160.871 224.907V196.973C160.871 192.64 157.361 189.133 153.035 189.133H114.3C109.972 189.133 106.464 192.64 106.464 196.973V224.907C98.7082 227.08 91.2775 230.173 84.2428 234.12L64.4775 214.36C61.5388 211.427 56.3362 211.427 53.3975 214.36L26.0095 241.747C22.9482 244.813 22.9482 249.773 26.0095 252.827L45.7615 272.587C41.7802 279.613 38.6962 287.053 36.5402 294.813H8.6175C4.29083 294.813 0.781494 298.333 0.781494 302.653V341.387C0.781494 345.72 4.29083 349.227 8.6175 349.227H36.5415C38.6975 356.987 41.7802 364.427 45.7615 371.453L26.0095 391.213C22.9482 394.267 22.9482 399.227 26.0095 402.293L53.3975 429.68C56.4588 432.747 61.4162 432.747 64.4775 429.68L84.2308 409.92C91.2708 413.907 98.7055 417 106.464 419.147V447.067C106.464 451.4 109.972 454.907 114.3 454.907H153.035C157.361 454.907 160.871 451.4 160.871 447.067V419.147C168.629 417 176.064 413.907 183.104 409.92L202.859 429.68C204.388 431.213 206.392 431.973 208.397 431.973C210.403 431.973 212.407 431.213 213.937 429.68L241.325 402.293C244.387 399.227 244.387 394.267 241.325 391.213L221.576 371.453C225.556 364.427 228.639 356.987 230.795 349.227H258.717C263.044 349.227 266.553 345.72 266.553 341.387V302.653C266.553 298.333 263.044 294.813 258.717 294.813Z" fill="black"/>
<path d="M346.527 194C323.861 194.32 323.836 228.107 346.496 228.454C369.1 228.094 369.161 194.44 346.527 194Z" fill="black"/>
<path d="M369.713 234.533C338.225 264.4 293.291 219.28 323.277 187.92C354.729 158.013 399.695 203.213 369.713 234.533ZM414.131 193.053L401.711 193.027C400.833 190.36 399.765 187.76 398.504 185.253C401.14 181.987 410.141 175.8 409.612 170.947C409.616 168.867 408.794 166.88 407.33 165.4L392.545 150.56C389.631 147.533 384.388 147.52 381.463 150.547L372.653 159.32C370.149 158.067 367.563 156.987 364.904 156.093C364.461 151.92 366.448 141.173 362.644 138.12C361.175 136.64 359.185 135.813 357.108 135.813L336.167 135.773C331.841 135.76 328.323 139.267 328.316 143.587L328.292 156.027C325.632 156.907 323.04 157.973 320.528 159.227L311.751 150.413C308.697 147.36 303.735 147.347 300.667 150.4L285.835 165.173C278.521 172.907 290.088 179.867 294.583 185.053C293.312 187.56 292.235 190.16 291.349 192.813C291.336 192.813 278.925 192.8 278.913 192.8C274.595 192.8 271.085 196.293 271.079 200.613L271.036 221.56C271.032 223.627 271.855 225.627 273.32 227.093C276.313 230.907 287.171 228.973 291.279 229.427C292.155 232.093 293.223 234.68 294.484 237.2L285.681 245.973C282.617 249.027 282.609 253.987 285.663 257.053L300.441 271.893C308.181 279.2 315.135 267.64 320.323 263.133C322.831 264.413 325.421 265.493 328.087 266.373L328.063 278.787C328.056 283.12 331.556 286.64 335.883 286.64L356.821 286.68C358.9 286.693 360.892 285.867 362.364 284.4C366.175 281.413 364.243 270.547 364.695 266.44C367.361 265.573 369.957 264.493 372.471 263.24C375.695 265.853 382.007 274.933 386.788 274.347C388.789 274.347 390.789 273.587 392.316 272.053L407.152 257.28C410.195 254.373 410.203 249.12 407.175 246.2C407.176 246.2 398.408 237.4 398.408 237.4C399.679 234.893 400.759 232.293 401.644 229.64C401.655 229.64 414.067 229.653 414.077 229.653C418.283 229.747 421.985 226.04 421.912 221.84L421.951 200.907C421.959 196.573 418.457 193.053 414.131 193.053Z" fill="black"/>
<path d="M179.131 97.1868C186.888 60.7868 240.449 70.7468 234.581 107.453C226.739 143.947 173.3 133.787 179.131 97.1868ZM200.176 138.373C248.139 145.693 260.897 76.5068 213.535 66.2535C165.668 58.8535 152.759 128.027 200.176 138.373Z" fill="black"/>
<path d="M155.388 92.787C170.043 25.1204 268.887 43.467 258.324 111.854C243.125 179.72 145.125 161.107 155.388 92.787ZM111.419 107.24L130.299 110.747C130.849 115.854 131.919 120.867 133.497 125.774L117.669 136.654C115.956 137.827 114.781 139.64 114.403 141.68C114.024 143.72 114.475 145.827 115.649 147.547L131.959 171.267C134.424 174.854 139.333 175.72 142.855 173.28L158.684 162.4C162.693 165.64 166.997 168.427 171.564 170.774L168.067 189.654C167.688 191.694 168.139 193.814 169.314 195.52C170.492 197.24 172.302 198.414 174.344 198.787L202.651 204.04C206.805 204.827 211.014 202.04 211.783 197.76L215.282 178.88C220.387 178.32 225.407 177.254 230.307 175.68L241.188 191.507C242.711 193.707 245.159 194.894 247.653 194.894C250.6 196.094 271.453 179.64 275.807 177.214C279.372 174.76 280.276 169.88 277.827 166.32L266.847 150.347C270.053 146.347 272.984 142.16 275.316 137.614L294.197 141.107C296.228 141.48 298.347 141.04 300.063 139.867C301.776 138.68 302.951 136.867 303.329 134.827L308.575 106.52C309.363 102.267 306.551 98.1737 302.297 97.387L283.417 93.8937C282.867 88.787 281.796 83.7603 280.216 78.867L296.041 67.987C297.755 66.8137 298.929 65.0003 299.308 62.9603C299.688 60.907 299.236 58.8003 298.061 57.0937L281.752 33.3736C279.308 29.8003 274.421 28.9069 270.857 31.3469L255.016 42.2403C251.011 39.0136 246.71 36.227 242.147 33.867L245.645 14.9736C246.433 10.7203 243.621 6.62696 239.367 5.8403L211.06 0.600321C206.768 -0.186345 202.716 2.62694 201.928 6.88027L198.427 25.7736C193.323 26.3336 188.307 27.4003 183.415 28.9736L172.528 13.1337C171.349 11.4137 169.54 10.2403 167.497 9.86699C165.457 9.49365 163.349 9.93363 161.632 11.107L137.904 27.4136C134.388 29.7336 133.432 34.8937 135.885 38.3204C135.884 38.3204 146.765 54.1469 146.765 54.1469C143.535 58.1469 140.736 62.4537 138.393 67.027L119.517 63.5204C115.391 62.6937 111.072 65.6403 110.387 69.8003L105.14 98.1204C104.293 102.24 107.267 106.56 111.419 107.24Z" fill="black"/>
<path d="M204.576 114.627C220.835 117.32 225.252 93.2802 209.139 90.0002C192.929 87.2535 188.423 111.347 204.576 114.627Z" fill="black"/>
</svg>
