<svg width="455" height="455" viewBox="0 0 455 455" fill="none" xmlns="http://www.w3.org/2000/svg">
<path d="M227.516 283.427C196.7 283.427 171.627 258.36 171.627 227.533C174.253 153.573 280.791 153.587 283.407 227.533C283.407 258.36 258.333 283.427 227.516 283.427ZM227.516 130.32C173.907 130.32 130.293 173.933 130.293 227.533C135.632 356.52 319.42 356.48 324.74 227.533C324.74 173.933 281.127 130.32 227.516 130.32Z" fill="black"/>
<path d="M227.516 340.427C165.268 340.427 114.623 289.787 114.623 227.534C120.825 77.7736 334.229 77.8136 340.411 227.534C340.411 289.787 289.765 340.427 227.516 340.427ZM446.9 185.72H393.338C389.308 169.56 382.939 154.2 374.323 139.867L412.208 101.974C415.269 98.9204 415.269 93.9601 412.208 90.8935L364.157 42.8404C361.096 39.787 356.139 39.787 353.077 42.8404L315.18 80.7469C300.837 72.1735 285.476 65.8136 269.328 61.7336V8.16015C269.328 3.82682 265.82 0.320307 261.494 0.320307H193.54C189.213 0.320307 185.705 3.82682 185.705 8.16015V61.7336C169.556 65.8136 154.195 72.1735 139.853 80.7469L101.956 42.8404C98.8948 39.787 93.9374 39.787 90.8761 42.8404L42.8255 90.8935C39.7641 93.9601 39.7641 98.9204 42.8255 101.974L80.7108 139.867C72.0948 154.2 65.7242 169.56 61.6962 185.72H8.13346C3.80546 185.72 0.298828 189.24 0.298828 193.56V261.52C0.298828 265.84 3.80546 269.347 8.13346 269.347H61.6962C65.7242 285.507 72.0948 300.88 80.7108 315.214L42.8255 353.093C39.7641 356.16 39.7641 361.12 42.8255 364.174L90.8761 412.227C93.9374 415.293 98.8948 415.293 101.956 412.227L139.841 374.347C154.177 382.96 169.543 389.333 185.705 393.36V446.92C185.705 451.254 189.213 454.76 193.54 454.76H261.494C265.82 454.76 269.328 451.254 269.328 446.92V393.36C285.489 389.333 300.856 382.96 315.192 374.347L353.077 412.227C356.139 415.293 361.096 415.293 364.157 412.227L412.208 364.174C415.269 361.12 415.269 356.16 412.208 353.093L374.323 315.214C382.939 300.88 389.308 285.507 393.338 269.347H446.9C451.227 269.347 454.735 265.84 454.735 261.52V193.56C454.735 189.24 451.227 185.72 446.9 185.72Z" fill="black"/>
<path d="M227.516 187.32C174.363 189.014 174.376 266.08 227.517 267.76C280.669 266.067 280.657 189 227.516 187.32Z" fill="black"/>
</svg>
