<svg width="456" height="434" viewBox="0 0 456 434" fill="none" xmlns="http://www.w3.org/2000/svg">
<path d="M199.653 103.507V124.453H183.92C173.707 124.48 173.653 140.08 183.92 140.12C198.307 140.133 233.386 140.107 248.146 140.12H271.72C281.933 140.08 281.987 124.493 271.707 124.453C271.72 124.453 255.987 124.453 255.987 124.453V103.507C295.16 83.9867 298.107 24.2401 260.44 1.41343C257.253 -0.413239 253.026 0.440056 250.733 3.30672C249.48 4.53339 249.2 6.50673 248.893 8.18673V40.7067L227.813 52.8801L206.746 40.7067V8.18673C206.44 6.50673 206.16 4.53339 204.893 3.30672C202.386 0.120056 197.88 -0.306559 194.533 1.69344C157.613 25.2401 160.653 83.9734 199.653 103.507Z" fill="black"/>
<path d="M88.9863 250.987H80.7729L94.6397 185.107C98.6264 170.107 112.666 159.627 128.773 159.627H326.866C342.973 159.627 356.999 170.107 360.893 184.707L374.866 250.987H366.653H88.9863ZM373.533 346.12H325.52C316.08 346.12 307.213 341.093 302.359 333C293.786 321.947 299.72 303.707 313.773 301.187L370.373 289.76C370.666 289.707 370.946 289.667 371.24 289.64C408.746 287.667 410.64 345 373.533 346.12ZM277.253 384.853H178.386V369.947H277.253V384.853ZM158.413 331.053C153.72 340.107 144.373 346.187 134.08 346.12H86.0663C71.0796 346.12 58.893 333.427 58.893 317.827C58.493 301.813 73.2128 287.36 89.2262 289.76L145.826 301.187C158.826 303.48 165.506 320.04 158.413 331.053ZM447.2 197.48H399.746C395.413 197.48 391.906 200.987 391.906 205.307V220.427H384.44L376.146 181.08C370.32 159.213 350.066 143.947 326.866 143.947H128.773C105.573 143.947 85.3063 159.213 79.3996 181.48L71.1996 220.427H63.7197V205.307C63.7197 200.987 60.213 197.48 55.893 197.48H8.43958C4.10625 197.48 0.599609 200.987 0.599609 205.307V235.32C0.599609 239.16 3.37297 242.427 7.15964 243.053L54.6129 250.893C59.2129 251.76 63.8397 247.853 63.7197 243.16V236.107H67.893L63.493 256.987C46.6263 265.48 34.653 282.227 32.893 302.373C32.973 302.867 28.7729 347.453 28.9729 347.88C28.6662 348.067 29.0529 392.413 28.9062 392.68V408.187C28.9062 422.213 40.3196 433.627 54.3462 433.627H97.7595C111.786 433.627 123.2 422.213 123.2 408.187V400.52C179.146 400.52 276.48 400.52 332.44 400.52V408.187C332.44 422.213 343.84 433.627 357.866 433.627H401.293C415.319 433.627 426.733 422.213 426.733 408.187V392.68C426.52 392.227 426.96 348.253 426.666 347.88C426.946 347.44 422.626 302.827 422.733 302.387C420.973 282.227 409.013 265.48 392.133 256.987L387.733 236.107H391.906V243.16C391.8 247.853 396.413 251.76 401.026 250.893L448.48 243.053C452.253 242.427 455.04 239.16 455.04 235.32V205.307C455.04 200.987 451.533 197.48 447.2 197.48Z" fill="black"/>
<path d="M373 305.213L316.88 316.547C312.746 317.88 313.746 322.36 315.8 324.933C317.84 328.333 321.56 330.453 325.52 330.453H373.533C388.8 330.187 388.706 304.907 373 305.213Z" fill="black"/>
<path d="M142.72 316.547L86.6132 305.213C70.9198 304.907 70.7999 330.187 86.0666 330.453H134.08C138.947 330.547 142.933 327.213 144.987 322.987C146.253 320.68 145.747 317.453 142.72 316.547Z" fill="black"/>
</svg>
