<svg width="456" height="454" viewBox="0 0 456 454" fill="none" xmlns="http://www.w3.org/2000/svg">
<path d="M227.974 55.9734C311.641 55.9734 381.48 116.147 396.6 195.493H317.227C315.52 181.4 302.667 170.24 288.454 170.44H167.48C153.28 170.24 140.401 181.4 138.707 195.493H59.3338C74.4538 116.147 144.294 55.9734 227.974 55.9734ZM399.627 225.72C316.76 230.16 250.2 305.293 247.014 398.32C234.547 399.747 221.4 399.747 208.92 398.32C205.734 305.293 139.174 230.16 56.3072 225.72C56.3606 220.813 56.6138 215.96 57.0671 211.16H140.841C141.507 212.693 142.267 214.2 143.2 215.613L203.694 306.973C209.094 315.147 218.174 320.013 227.974 320.013C237.761 320.013 246.841 315.147 252.241 306.973L312.734 215.613C313.667 214.2 314.427 212.693 315.094 211.16H398.867C399.32 215.96 399.574 220.813 399.627 225.72ZM56.8804 241.64C130.08 246.4 188.76 312.867 192.987 395.813C119.454 380.533 63.0537 318.08 56.8804 241.64ZM262.947 395.813C267.174 312.867 325.854 246.4 399.054 241.64C392.88 318.08 336.48 380.533 262.947 395.813ZM227.974 0.466743C102.681 0.466743 0.74707 102.4 0.74707 227.693C13.2271 529.12 442.747 529.04 455.187 227.68C455.187 102.4 353.254 0.466743 227.974 0.466743Z" fill="black"/>
</svg>
