<svg width="455" height="425" viewBox="0 0 455 425" fill="none" xmlns="http://www.w3.org/2000/svg">
<path d="M345.813 194.8C345.813 197.453 345.653 200.053 345.413 202.64H279.733L326.16 249.08C322.813 253.093 319.107 256.813 315.08 260.16L268.654 213.72V279.4C263.494 279.92 258.133 279.92 252.973 279.4V213.72L206.547 260.16C202.52 256.8 198.813 253.093 195.467 249.08L241.893 202.64H176.213C175.693 197.493 175.693 192.12 176.213 186.973H241.893L195.467 140.533C198.813 136.507 202.52 132.8 206.547 129.453L252.973 175.893V110.2C258.133 109.693 263.494 109.693 268.654 110.2V175.893L315.08 129.453C319.107 132.8 322.813 136.507 326.16 140.533L279.733 186.973H345.413C345.653 189.547 345.813 192.16 345.813 194.8ZM332.16 123.867C325.213 116.893 317.267 110.92 308.547 106.2C242.96 69.7601 159.253 119.813 160.147 194.8C159.253 269.787 242.987 319.867 308.547 283.4C367.053 253.187 379.493 169.667 332.16 123.867Z" fill="black"/>
<path d="M260.84 309.613C198.586 310.293 145.346 257.173 146.053 194.827C152.346 42.5601 369.333 42.5735 375.613 194.827C375.613 258.12 324.133 309.613 260.84 309.613ZM27.6397 404.507H17.0531C16.5331 404.507 16.1198 404.08 16.1198 403.573V293.2C16.1198 292.68 16.5331 292.267 17.0531 292.267H27.6397C28.1597 292.267 28.5865 292.68 28.5865 293.2C28.5865 293.28 28.5865 301.027 28.5865 301.093V403.573C28.5865 404.08 28.1597 404.507 27.6397 404.507ZM399.733 58.8268C223.186 -107.947 -34.1869 113.293 107.84 314.64C87.933 310.267 66.7465 304.053 44.2531 295.573C45.2531 285.653 37.8397 276.52 27.6397 276.587H17.0531C7.89312 276.587 0.453125 284.04 0.453125 293.2V403.573C0.453125 412.72 7.89312 420.173 17.0531 420.173H27.6397C35.7597 420.173 42.5064 414.307 43.9464 406.6C96.333 417.933 140.066 424.893 180.866 424.893C258.92 424.653 343.533 396.4 397.8 336.4C410.76 323.76 420.093 308.013 429.293 291.64V291.627C429.36 291.507 429.426 291.373 429.493 291.253C471.16 218.467 461.133 118.587 399.733 58.8268Z" fill="black"/>
</svg>
