<svg width="444" height="444" viewBox="0 0 444 444" fill="none" xmlns="http://www.w3.org/2000/svg">
<path d="M61.5602 396.974C51.4535 406.48 36.8002 392.04 46.5335 381.947C56.5602 372.227 71.2802 386.96 61.5602 396.974ZM35.4536 370.867C11.5202 396 47.5335 431.987 72.6401 408.067C72.6401 408.054 72.6401 408.054 72.6401 408.054C96.5601 382.76 60.7469 347.52 35.4536 370.867Z" fill="black"/>
<path d="M294.733 136.52C284.24 136.133 278.267 150.16 286.053 157.453C304.227 172.08 317.827 138.907 294.733 136.52Z" fill="black"/>
<path d="M415.16 175.16L268.346 28.3335L277.773 18.9068L424.6 165.72L415.16 175.16ZM314.48 168.52C287.746 193.88 249.64 155.747 274.973 129.027C301.707 103.667 339.84 141.8 314.48 168.52ZM185.946 274.854C147.746 277.827 117.227 308.347 114.24 346.547L99.7998 360.987C95.5732 354.08 89.4 347.893 82.5066 343.707L222.44 203.774C226.747 208.08 235.427 216.76 239.733 221.067L185.946 274.854ZM232.96 319.787C236.146 322.72 236.36 327.667 233.426 330.854L185.76 382.76C184.24 384.427 182.053 385.36 179.8 385.294C177.533 385.24 175.4 384.2 173.96 382.467L153.426 357.667C146.946 349.747 158.92 339.8 165.507 347.68L180.307 365.547L221.893 320.254C224.826 317.067 229.786 316.867 232.96 319.787ZM81.0932 416.52C44.4665 451.28 -7.80009 398.92 26.9866 362.4C63.6266 327.64 115.893 380 81.0932 416.52ZM441.226 160.2C441.24 160.187 283.32 2.29349 283.32 2.28015C280.413 -0.479847 276.04 -0.69318 272.946 1.81349C272.72 1.98682 272.44 2.06682 272.226 2.28015C272.213 2.30682 251.706 22.7869 251.693 22.8269L129.68 144.84C128.213 146.307 127.387 148.294 127.387 150.374C127.387 152.454 128.213 154.454 129.68 155.92L157.493 183.72C159.64 185.56 162.386 186.307 165.16 185.734L195.8 177.134L211.36 192.694L66.8932 337.16C14.8399 324.027 -22.6268 389.24 15.9065 427.6C53.7065 465.987 119.813 428.72 106.373 376.573L115.387 367.56C122.36 403.534 154.08 430.8 192.067 430.8C286.827 428.08 298.68 296.214 206.946 276L250.813 232.147L266.373 247.707L257.773 278.347C257.227 281.107 257.933 283.88 259.787 286L287.587 313.813C289.053 315.28 291.053 316.107 293.133 316.107C295.213 316.107 297.2 315.28 298.666 313.813L420.68 191.813C420.72 191.8 441.2 171.294 441.226 171.267C444.253 168.36 444.266 163.107 441.226 160.2Z" fill="black"/>
</svg>
