<svg width="445" height="444" viewBox="0 0 445 444" fill="none" xmlns="http://www.w3.org/2000/svg">
<path d="M62.3999 396.973C52.3065 406.48 37.6532 392.04 47.3732 381.947C57.4132 372.227 72.1332 386.947 62.3999 396.973ZM36.2932 370.867C12.3599 396 48.3865 431.987 73.4798 408.054C73.4798 408.054 73.4799 408.054 73.4932 408.054C97.4132 382.747 61.5866 347.52 36.2932 370.867Z" fill="black"/>
<path d="M416.013 175.16L269.2 28.3334L278.626 18.9067L425.453 165.72L416.013 175.16ZM315.333 168.52C288.6 193.88 250.48 155.747 275.826 129.027C302.56 103.667 340.68 141.8 315.333 168.52ZM100.653 361C96.4798 354.12 90.2263 347.88 83.3463 343.707L223.293 203.773L240.586 221.067L100.653 361ZM81.9463 416.52C45.3863 451.32 -6.9603 398.947 27.8397 362.4C64.4397 327.667 116.68 379.92 81.9463 416.52ZM442.08 160.2C442.08 160.187 284.173 2.29339 284.173 2.28006C281.266 -0.479944 276.893 -0.693277 273.786 1.81339C273.573 1.98672 273.28 2.06672 273.08 2.28006C273.053 2.30672 252.546 22.7868 252.546 22.8268L130.533 144.84C127.48 147.893 127.48 152.853 130.533 155.92L158.346 183.72C160.48 185.56 163.24 186.293 166 185.733L196.653 177.133L212.213 192.693L67.7331 337.16C15.6797 324.04 -21.7736 389.253 16.7598 427.6C55.1064 466.12 120.333 428.667 107.2 376.613L251.666 232.147L267.226 247.707L258.626 278.347C258.08 281.107 258.786 283.88 260.64 286L288.44 313.813C289.906 315.28 291.893 316.107 293.973 316.107C296.053 316.107 298.053 315.28 299.52 313.813L421.52 191.813C421.56 191.8 442.04 171.293 442.08 171.267C445.106 168.36 445.12 163.107 442.08 160.2Z" fill="black"/>
<path d="M295.587 136.52C285.08 136.133 279.107 150.16 286.907 157.453C305.067 172.08 318.68 138.907 295.587 136.52Z" fill="black"/>
</svg>
