<svg width="445" height="445" viewBox="0 0 445 445" fill="none" xmlns="http://www.w3.org/2000/svg">
<path d="M295.432 137.507C272.289 139.96 285.977 173.08 304.101 158.44C311.855 151.227 306.015 137.133 295.432 137.507Z" fill="black"/>
<path d="M415.865 176.16L269.041 29.3334L278.479 19.9067L425.304 166.72L415.865 176.16ZM315.18 169.52C288.455 194.893 250.324 156.733 275.68 130.027C302.572 105.213 340.583 142.667 315.18 169.52ZM185.38 277.107C148.665 280.853 119.393 310.133 115.645 346.84L100.495 362C96.3228 355.12 90.0828 348.88 83.2094 344.707L223.144 204.773L240.428 222.067L185.38 277.107ZM229.919 318.28C232.98 321.347 232.98 326.307 229.919 329.36L204.448 354.84L229.919 380.307C232.98 383.36 232.98 388.32 229.919 391.387C226.859 394.44 221.9 394.44 218.84 391.387L193.368 365.92L167.896 391.387C164.836 394.44 159.877 394.44 156.817 391.387C153.756 388.32 153.756 383.36 156.817 380.307L182.288 354.84L156.817 329.36C153.756 326.307 153.756 321.347 156.817 318.28C159.877 315.227 164.836 315.227 167.896 318.28L193.368 343.76L218.84 318.28C221.9 315.227 226.859 315.227 229.919 318.28ZM81.7988 417.52C45.2362 452.32 -7.11586 399.947 27.6881 363.4C64.2948 328.667 116.535 380.92 81.7988 417.52ZM441.931 161.2C441.935 161.187 284.019 3.29332 284.019 3.27999C280.96 0.213324 275.996 0.213324 272.932 3.27999C272.9 3.31999 252.393 23.7867 252.384 23.84C252.383 23.84 130.389 145.84 130.389 145.84C127.328 148.893 127.328 153.853 130.389 156.92L158.197 184.72C160.333 186.56 163.091 187.293 165.853 186.733L196.497 178.133L212.064 193.693L67.5974 338.16C15.5335 325.027 -21.9226 390.24 16.6094 428.6C54.9601 467.133 120.192 429.653 107.04 377.613L116.464 368.187C122.825 404.92 154.845 432.96 193.368 432.96C289.011 430.133 299.775 296.587 206.719 277.933L251.508 233.147L267.075 248.707L258.475 279.347C257.921 282.107 258.633 284.88 260.48 287C260.479 287 288.288 314.813 288.288 314.813C289.819 316.347 291.824 317.107 293.828 317.107C295.833 317.107 297.837 316.347 299.368 314.813L421.365 192.827C421.421 192.813 441.883 172.307 441.931 172.267C444.991 169.213 444.991 164.253 441.931 161.2Z" fill="black"/>
<path d="M62.2561 397.973C62.2561 397.973 62.2561 397.973 62.2521 397.973C52.1521 407.48 37.5041 393.04 47.2255 382.947C57.2575 373.227 71.9788 387.947 62.2561 397.973ZM36.1454 371.867C12.2094 397 48.2321 432.987 73.3348 409.054C73.3348 409.054 73.3348 409.054 73.3388 409.054C97.2588 383.747 61.4401 348.52 36.1454 371.867Z" fill="black"/>
</svg>
