<svg width="455" height="455" viewBox="0 0 455 455" fill="none" xmlns="http://www.w3.org/2000/svg">
<path d="M227.667 196.067C186.08 197.387 186.08 257.693 227.667 259.013C269.253 257.693 269.253 197.387 227.667 196.067Z" fill="black"/>
<path d="M253.946 171.347C239.066 165.307 233.8 189.453 249.76 190.213C260.026 190.533 263.386 175.413 253.946 171.347Z" fill="black"/>
<path d="M280.853 200.787C269.08 195.347 260.8 213.213 272.453 218.707C284.2 224.2 292.573 206.293 280.853 200.787Z" fill="black"/>
<path d="M279.093 240.653C261.333 234.44 260.093 263.507 278.253 258.92C278.253 258.92 278.266 258.92 278.28 258.907C286.4 256.28 286.933 243.987 279.093 240.653Z" fill="black"/>
<path d="M249.64 267.56C237.746 262.253 229.573 279.827 241.266 285.507C253.08 290.813 261.36 273.28 249.64 267.56Z" fill="black"/>
<path d="M209.773 265.787C202.147 261.934 193.133 270.147 196.28 278.12C196.28 278.134 196.293 278.133 196.293 278.147C204.453 295.067 225.907 275.374 209.773 265.787Z" fill="black"/>
<path d="M182.88 236.36C171.133 230.88 162.76 248.773 174.48 254.293C186.293 259.587 194.573 242.093 182.88 236.36Z" fill="black"/>
<path d="M177.08 196.16C177.08 196.16 177.067 196.16 177.054 196.16C164.92 200.613 171.653 219.133 183.813 214.773C195.947 210.173 189.413 191.933 177.08 196.16Z" fill="black"/>
<path d="M205.693 187.507C217.453 192.947 225.773 175.08 214.067 169.573C202.213 164.253 194 181.787 205.693 187.507Z" fill="black"/>
<path d="M387.707 242.987C352.187 246.294 310.413 233.734 311.653 227.534C310.48 221.334 352.187 208.787 387.707 212.093C388.733 222.24 388.733 232.84 387.707 242.987ZM361.267 316.934C279.933 229.787 229.987 279.92 317.067 361.147C299.76 372.76 280.08 381.08 258.933 385.267C263.053 266.067 192.253 266.187 196.4 385.267C175.253 381.08 155.573 372.76 138.267 361.147C225.427 279.813 175.307 229.854 94.0534 316.934C82.44 299.627 74.1199 279.947 69.9466 258.8C189.147 262.92 189.013 192.134 69.9466 196.28C74.1199 175.12 82.44 155.453 94.0534 138.147C170.413 221.96 228.587 179.88 138.267 93.9336C155.573 82.3202 175.253 74.0002 196.4 69.8135C192.28 189.013 263.08 188.88 258.933 69.8135C280.08 74.0002 299.76 82.3202 317.067 93.9336C226.64 180.027 285.08 221.853 361.267 138.147C372.893 155.453 381.2 175.12 385.387 196.28C266.2 192.16 266.32 262.947 385.387 258.8C381.2 279.947 372.893 299.627 361.267 316.934ZM329.893 351.613C302.533 329.013 281.707 290.174 287.053 286.92C290.373 281.614 329.147 302.413 351.733 329.76C345.173 337.72 337.853 345.04 329.893 351.613ZM243.107 387.587C232.973 388.614 222.36 388.614 212.227 387.587C208.92 352.054 221.48 310.28 227.667 311.52C233.88 310.347 246.413 352.054 243.107 387.587ZM133.813 343.707C131.013 346.507 128.227 349.107 125.44 351.613C117.48 345.04 110.16 337.72 103.6 329.76C126.2 302.4 165.08 281.587 168.28 286.92C171.147 289.8 163.747 313.774 133.813 343.707ZM67.6133 242.987C66.5866 232.84 66.5866 222.24 67.6133 212.093C103.147 208.787 144.92 221.347 143.68 227.547C144.853 233.747 103.147 246.294 67.6133 242.987ZM125.44 103.467C152.8 126.067 173.627 164.893 168.28 168.147C165.013 173.453 126.173 152.654 103.6 125.307C110.16 117.36 117.48 110.04 125.44 103.467ZM212.227 67.4934C222.36 66.4668 232.973 66.4668 243.107 67.4934C246.413 103.013 233.853 144.8 227.667 143.547C221.453 144.733 208.92 103.013 212.227 67.4934ZM329.893 103.467C337.853 110.04 345.173 117.36 351.733 125.32C329.12 152.68 290.347 173.493 287.053 168.147C281.733 164.867 302.56 126.04 329.893 103.467ZM454.88 227.347C455.027 224.734 454.013 222.187 452.093 220.614C456.68 215.934 453.507 208.28 453.52 202.454C453.253 200.08 451.96 198.054 450.12 196.814C454.187 191.654 450.227 184.387 449.6 178.587C449.08 176.254 447.573 174.4 445.613 173.36C449.107 167.787 444.4 161 443.16 155.293C442.4 153.027 440.693 151.334 438.64 150.507C441.507 144.614 436.107 138.374 434.267 132.84C433.267 130.667 431.413 129.173 429.28 128.56C431.493 122.387 425.467 116.787 423.053 111.467C421.827 109.414 419.813 108.12 417.627 107.747C419.173 101.373 412.587 96.4269 409.6 91.3869C408.173 89.4803 406.027 88.4135 403.813 88.2802C404.693 81.7602 397.6 77.5603 394.107 72.8536C392.493 71.0936 390.133 70.3334 388.013 70.3601C388.2 63.8001 380.707 60.3469 376.733 56.0536C374.933 54.4803 372.64 53.8802 370.413 54.2135C370.32 51.9868 369.293 49.8268 367.4 48.3468C362.413 45.2802 357.6 38.5868 351.187 40.0135C349.987 33.5468 341.933 31.7603 337.133 28.3869C335.027 27.2269 332.627 27.1336 330.56 27.9203C328.68 21.6136 320.48 20.6936 315.333 17.8536C313.12 16.9203 310.72 17.0801 308.747 18.0935C306.2 12.0268 297.96 12.0003 292.533 9.72027C290.253 9.04027 287.88 9.45361 286.027 10.6536C282.84 4.92027 274.667 5.76017 269.027 4.08017C266.64 3.64017 264.36 4.30699 262.653 5.70699C258.853 0.346993 250.84 2.05366 245.053 0.97366C242.72 0.800327 240.453 1.70684 238.893 3.28017C236.347 -0.19983 231.56 0.346941 227.68 0.320274C223.36 0.506941 217.907 -0.55983 215.013 3.34684C210.2 -1.13316 202.64 2.26689 196.813 2.40022C194.44 2.72022 192.467 4.06684 191.267 5.94684C186 2.02684 178.853 6.14694 173.067 6.92027C170.733 7.49361 168.92 9.05366 167.933 11.0403C162.253 7.69366 155.613 12.5735 149.933 13.9601C147.693 14.7868 146.053 16.5069 145.28 18.5869C139.307 15.8936 133.227 21.4402 127.733 23.4135C125.587 24.4668 124.147 26.3736 123.587 28.5203C117.373 26.4669 111.907 32.6269 106.653 35.1869C104.64 36.4669 103.4 38.507 103.08 40.707C96.6666 39.3203 91.8933 46.0269 86.9333 49.1336C85.0533 50.6136 84.04 52.7868 83.96 55.0135C81.8 54.7068 79.4667 55.2935 77.6667 56.8802C73.7067 61.2002 66.24 64.6936 66.4534 71.2536C64.2267 71.1336 61.9866 72.0269 60.3733 73.7869C56.9066 78.4803 49.84 82.7603 50.76 89.2536C48.5467 89.4136 46.4134 90.4935 44.9867 92.4135C42.0267 97.4535 35.44 102.467 37.0534 108.84C30.6 110.2 29.04 118.294 25.7733 123.187C24.6666 125.32 24.64 127.72 25.4933 129.774C19.2267 131.827 18.52 140.04 15.8 145.254C14.9333 147.494 15.16 149.894 16.2267 151.854C10.2267 154.547 10.4 162.774 8.25337 168.254C7.64004 170.574 8.11996 172.92 9.37329 174.747C3.70663 178.093 4.77335 186.227 3.22668 191.907C2.85335 194.267 3.57335 196.547 5.02668 198.24C-0.253321 202.16 1.66665 210.134 0.733319 215.947C0.613319 218.334 1.58665 220.52 3.19999 222.04C-1.62668 226.48 1.1067 234.293 0.786705 240.093C0.920038 242.493 2.1066 244.574 3.87993 245.92C-0.466733 250.84 3.09329 258.32 3.37329 264.134C3.75996 266.494 5.15999 268.44 7.06665 269.587C3.26665 274.947 7.58663 281.987 8.50663 287.747C9.14663 290.067 10.7466 291.854 12.7733 292.787C9.57329 298.52 14.6266 305.053 16.1466 310.693C17.0266 312.92 18.8 314.52 20.8933 315.24C18.3467 321.28 24.04 327.227 26.1733 332.654C27.28 334.774 29.2266 336.174 31.3733 336.667C29.48 342.947 35.7866 348.24 38.4799 353.427C39.7999 355.413 41.88 356.614 44.0933 356.867C42.88 363.307 49.6933 367.907 52.9333 372.787C54.4667 374.627 56.6533 375.587 58.8667 375.613C58.3333 382.147 65.6133 386.014 69.3466 390.52C71.0666 392.187 73.3733 392.907 75.56 392.693C75.52 394.92 76.4266 397.134 78.24 398.707C83.04 402.054 87.48 409.014 93.96 407.934C94.8133 414.454 102.747 416.68 107.36 420.32C109.373 421.587 111.773 421.813 113.893 421.147C115.427 427.547 123.547 428.907 128.52 432.04C130.667 433.094 133.08 433.053 135.12 432.16C137.333 438.36 145.56 438.867 150.853 441.44C153.093 442.254 155.48 441.96 157.413 440.854C160.267 446.774 168.48 446.387 174.013 448.387C176.333 448.947 178.667 448.414 180.467 447.107C183.947 452.68 192.053 451.413 197.773 452.813C200.147 453.093 202.4 452.334 204.053 450.84C208.107 456.027 216.013 453.893 221.867 454.68C224.227 454.747 226.44 453.734 227.907 452.067C232.44 456.787 240.213 453.854 246.027 454.027C248.4 453.827 250.453 452.6 251.747 450.8C256.787 454.974 264.173 451.28 269.973 450.827C272.333 450.374 274.24 448.934 275.333 447C280.8 450.654 287.72 446.147 293.467 445.08C295.76 444.387 297.493 442.747 298.387 440.707C304.2 443.747 310.587 438.547 316.187 436.867C318.387 435.934 319.933 434.12 320.6 432.013C326.707 434.387 332.493 428.547 337.867 426.28C339.96 425.12 341.307 423.147 341.747 420.974C348.08 422.72 353.213 416.28 358.333 413.454C360.28 412.067 361.413 409.96 361.627 407.76C368.093 408.813 372.533 401.867 377.32 398.52C379.12 396.934 380.027 394.72 379.987 392.507C386.56 392.88 390.2 385.507 394.627 381.654C396.253 379.894 396.92 377.587 396.653 375.387C403.2 375.054 406.08 367.347 410.067 363.054C411.507 361.12 411.92 358.76 411.413 356.6C413.613 356.334 415.693 355.147 417.013 353.16C419.72 347.96 426.04 342.627 424.107 336.347C430.467 334.653 431.653 326.493 434.64 321.427C435.64 319.24 435.547 316.84 434.587 314.827C440.733 312.453 441.027 304.214 443.467 298.867C444.213 296.587 443.867 294.214 442.707 292.32C448.547 289.307 447.96 281.12 449.8 275.534C450.307 273.187 449.707 270.867 448.347 269.107C453.84 265.48 452.36 257.427 453.613 251.667C453.867 249.294 453.027 247.04 451.493 245.44C456.6 241.134 454.227 233.454 454.88 227.347Z" fill="black"/>
</svg>
