<svg width="400" height="455" viewBox="0 0 400 455" fill="none" xmlns="http://www.w3.org/2000/svg">
<path d="M345.067 135.454H373.827C387.84 135.454 399.213 124.067 399.213 110.08V25.6935C399.213 11.7068 387.84 0.320307 373.827 0.320307H345.067C331.08 0.320307 319.693 11.7068 319.693 25.6935V60.0536H237.093C233.573 45.947 220.893 35.4268 205.707 35.4268H194.24C179.053 35.4268 166.373 45.947 162.84 60.0536H79.9201V25.6935C79.9201 11.7068 68.5333 0.320307 54.5333 0.320307H25.7599C11.7732 0.320307 0.386719 11.7068 0.386719 25.6935V110.08C0.386719 124.067 11.7732 135.454 25.7599 135.454H54.5333C68.5333 135.454 79.9201 124.067 79.9201 110.08V75.7203H162.84C166.2 89.1603 177.907 99.2002 192.133 100.134V224.787C181.653 225.24 173.253 233.84 173.253 244.427V288.56C173.253 299.147 181.653 307.747 192.133 308.2V354.734H181.507C168.08 354.787 160.253 366.72 161.773 379.36H79.9201V345C79.9201 331 68.5333 319.614 54.5333 319.614H25.7599C11.7732 319.614 0.386719 331 0.386719 345V429.374C0.386719 443.374 11.7732 454.76 25.7599 454.76H54.5333C68.5333 454.76 79.9201 443.374 79.9201 429.374V395.027H161.773C160.267 407.653 168.08 419.587 181.507 419.64H218.44C231.84 419.587 239.693 407.653 238.16 395.027H319.693V429.374C319.693 443.374 331.08 454.76 345.067 454.76H373.827C387.84 454.76 399.213 443.374 399.213 429.374V345C399.213 331 387.84 319.614 373.827 319.614H345.067C331.08 319.614 319.693 331 319.693 345V379.36H238.16C239.68 366.72 231.853 354.787 218.44 354.734H207.8V308.2C218.293 307.747 226.693 299.147 226.693 288.56V244.427C226.693 233.84 218.293 225.24 207.8 224.787V100.134C222.04 99.2002 233.733 89.1603 237.093 75.7203H319.693V110.08C319.693 124.067 331.08 135.454 345.067 135.454Z" fill="black"/>
</svg>
