<svg width="455" height="449" viewBox="0 0 455 449" fill="none" xmlns="http://www.w3.org/2000/svg">
<path d="M393.426 265.48H357.946V182.493H434.44L393.426 265.48ZM16.1198 265.48V182.493H65.4531V265.48H16.1198ZM453.706 170.533C452.28 168.227 449.76 166.827 447.053 166.827H357.44V154.88C357.44 141.787 346.773 131.12 333.68 131.12H89.213C76.1063 131.12 65.4531 141.787 65.4531 154.88V166.827H8.27969C3.95969 166.827 0.453125 170.333 0.453125 174.667V273.32C0.453125 277.64 3.95969 281.147 8.27969 281.147H65.4531V293.093C65.4531 306.2 76.1063 316.853 89.213 316.853H333.68C346.773 316.853 357.44 306.2 357.44 293.093V281.147H398.293C401.28 281.147 404 279.453 405.32 276.787L454.08 178.133C455.28 175.707 455.133 172.827 453.706 170.533Z" fill="black"/>
<path d="M198.306 75.1201H306.787C327.227 75.1201 343.866 58.4934 343.866 38.0401C343.866 17.6001 327.227 0.960161 306.787 0.960161C302.453 0.960161 298.946 4.4668 298.946 8.80013C298.946 13.1201 302.453 16.6401 306.787 16.6401C335 17.3734 335.027 58.7068 306.787 59.4535H198.306C188.066 59.6001 187.96 74.9468 198.306 75.1201Z" fill="black"/>
<path d="M361.013 45.8801C389.227 46.6135 389.253 87.9601 361.013 88.6935H252.547C248.213 88.6935 244.707 92.2001 244.707 96.5334C244.707 100.853 248.213 104.36 252.547 104.36H361.013C410 102.813 410.027 31.7601 361.013 30.2135C350.747 30.2668 350.787 45.8268 361.013 45.8801Z" fill="black"/>
<path d="M157.133 374.76H48.6661C44.3328 374.76 40.8262 378.267 40.8262 382.587C40.8262 386.92 44.3328 390.427 48.6661 390.427H157.133C185.346 391.16 185.373 432.507 157.133 433.24C152.813 433.24 149.306 436.747 149.306 441.08C149.306 445.4 152.813 448.907 157.133 448.907C206.133 447.36 206.146 376.307 157.133 374.76Z" fill="black"/>
<path d="M211.386 345.507H102.906C98.573 345.507 95.0664 349.013 95.0664 353.347C95.0664 357.667 98.573 361.173 102.906 361.173H211.386C239.586 361.907 239.613 403.267 211.373 404C207.053 404 203.546 407.507 203.546 411.827C203.546 416.16 207.053 419.667 211.386 419.667C260.36 418.12 260.373 347.067 211.386 345.507Z" fill="black"/>
</svg>
